<svg version="1.1" xmlns="http://www.w3.org/2000/svg" xmlns:xlink="http://www.w3.org/1999/xlink" width="794.03955078125" height="800"><defs/><g><g transform="translate(-382,-142) scale(1,1)"><rect fill="#C0C0C0" stroke="none" x="871" y="303" width="302.03955078125" height="160" opacity="0.2"/></g><g transform="translate(-382,-142) scale(1,1)"><rect fill="#ffffff" stroke="none" x="864" y="296" width="302.03955078125" height="160"/></g><g transform="translate(-382,-142) scale(1,1)"><path fill="none" stroke="#000000" d="M 864 296 L 1166.03955078125 296 L 1166.03955078125 456 L 864 456 L 864 296 Z Z" stroke-miterlimit="10"/></g><g transform="translate(-382,-142) scale(1,1)"><path fill="none" stroke="#000000" d="M 864 321 L 1166.03955078125 321" stroke-miterlimit="10"/></g><g transform="translate(-382,-142) scale(1,1)"><path fill="none" stroke="#000000" d="M 864 404 L 1166.03955078125 404" stroke-miterlimit="10"/></g><g transform="translate(-382,-142) scale(1,1)"><g><path fill="none" stroke="none"/><text fill="#000000" stroke="none" font-family="Arial" font-size="13px" font-style="normal" font-weight="bold" text-decoration="none" x="981.783447265625" y="315.5">EntitySprite</text></g></g><g transform="translate(-382,-142) scale(1,1)"><g><path fill="none" stroke="none"/><text fill="#000000" stroke="none" font-family="Arial" font-size="13px" font-style="normal" font-weight="normal" text-decoration="none" x="869" y="338.5">-protected AnimationManager _animationManager</text></g></g><g transform="translate(-382,-142) scale(1,1)"><g><path fill="none" stroke="none"/><text fill="#000000" stroke="none" font-family="Arial" font-size="13px" font-style="normal" font-weight="normal" text-decoration="none" x="869" y="353.5">-protected Dictionary _animations</text></g></g><g transform="translate(-382,-142) scale(1,1)"><g><path fill="none" stroke="none"/><text fill="#000000" stroke="none" font-family="Arial" font-size="13px" font-style="normal" font-weight="normal" text-decoration="none" x="869" y="368.5">+int SpriteWidth</text></g></g><g transform="translate(-382,-142) scale(1,1)"><g><path fill="none" stroke="none"/><text fill="#000000" stroke="none" font-family="Arial" font-size="13px" font-style="normal" font-weight="normal" text-decoration="none" x="869" y="383.5">+int SpriteHeight</text></g></g><g transform="translate(-382,-142) scale(1,1)"><g><path fill="none" stroke="none"/><text fill="#000000" stroke="none" font-family="Arial" font-size="13px" font-style="normal" font-weight="normal" text-decoration="none" x="869" y="398.5">#Texture2D _texture</text></g></g><g transform="translate(-382,-142) scale(1,1)"><g><path fill="none" stroke="none"/><text fill="#000000" stroke="none" font-family="Arial" font-size="13px" font-style="normal" font-weight="normal" text-decoration="none" x="869" y="421.5">+LoadContent(Content content)</text></g></g><g transform="translate(-382,-142) scale(1,1)"><g><path fill="none" stroke="none"/><text fill="#000000" stroke="none" font-family="Arial" font-size="13px" font-style="normal" font-weight="normal" text-decoration="none" x="869" y="436.5">+SetAnimations()</text></g></g><g transform="translate(-382,-142) scale(1,1)"><rect fill="#C0C0C0" stroke="none" x="871" y="599" width="195.51318359375" height="100" opacity="0.2"/></g><g transform="translate(-382,-142) scale(1,1)"><rect fill="#ffffff" stroke="none" x="864" y="592" width="195.51318359375" height="100"/></g><g transform="translate(-382,-142) scale(1,1)"><path fill="none" stroke="#000000" d="M 864 592 L 1059.51318359375 592 L 1059.51318359375 692 L 864 692 L 864 592 Z Z" stroke-miterlimit="10"/></g><g transform="translate(-382,-142) scale(1,1)"><path fill="none" stroke="#000000" d="M 864 617 L 1059.51318359375 617" stroke-miterlimit="10"/></g><g transform="translate(-382,-142) scale(1,1)"><path fill="none" stroke="#000000" d="M 864 655 L 1059.51318359375 655" stroke-miterlimit="10"/></g><g transform="translate(-382,-142) scale(1,1)"><g><path fill="none" stroke="none"/><text fill="#000000" stroke="none" font-family="Arial" font-size="13px" font-style="normal" font-weight="bold" text-decoration="none" x="945.500244140625" y="611.5">Entity</text></g></g><g transform="translate(-382,-142) scale(1,1)"><g><path fill="none" stroke="none"/><text fill="#000000" stroke="none" font-family="Arial" font-size="13px" font-style="normal" font-weight="normal" text-decoration="none" x="869" y="634.5">+Vector2 Position</text></g></g><g transform="translate(-382,-142) scale(1,1)"><g><path fill="none" stroke="none"/><text fill="#000000" stroke="none" font-family="Arial" font-size="13px" font-style="normal" font-weight="normal" text-decoration="none" x="869" y="649.5">-Boolean isOnAction</text></g></g><g transform="translate(-382,-142) scale(1,1)"><g><path fill="none" stroke="none"/><text fill="#000000" stroke="none" font-family="Arial" font-size="13px" font-style="normal" font-weight="normal" text-decoration="none" x="869" y="672.5">+Update(GameTime gameTime)</text></g></g><g transform="translate(-382,-142) scale(1,1)"><g><path fill="none" stroke="none"/><text fill="#000000" stroke="none" font-family="Arial" font-size="13px" font-style="normal" font-weight="normal" text-decoration="none" x="869" y="687.5">+Draw(GameTime gameTime)</text></g></g><g transform="translate(-382,-142) scale(1,1)"><rect fill="#C0C0C0" stroke="none" x="591" y="895" width="175.1435546875" height="44" opacity="0.2"/></g><g transform="translate(-382,-142) scale(1,1)"><rect fill="#ffffff" stroke="none" x="584" y="888" width="175.1435546875" height="44"/></g><g transform="translate(-382,-142) scale(1,1)"><path fill="none" stroke="#000000" d="M 584 888 L 759.1435546875 888 L 759.1435546875 932 L 584 932 L 584 888 Z Z" stroke-miterlimit="10"/></g><g transform="translate(-382,-142) scale(1,1)"><path fill="none" stroke="#000000" d="M 584 913 L 759.1435546875 913" stroke-miterlimit="10"/></g><g transform="translate(-382,-142) scale(1,1)"><path fill="none" stroke="#000000" d="M 584 923 L 759.1435546875 923" stroke-miterlimit="10"/></g><g transform="translate(-382,-142) scale(1,1)"><g><path fill="none" stroke="none"/><text fill="#000000" stroke="none" font-family="Arial" font-size="13px" font-style="normal" font-weight="bold" text-decoration="none" x="592.81005859375" y="907.5">DrawableGameComponent</text></g></g><g transform="translate(-382,-142) scale(1,1)"><rect fill="#C0C0C0" stroke="none" x="631" y="727" width="126.03173828125" height="85" opacity="0.2"/></g><g transform="translate(-382,-142) scale(1,1)"><rect fill="#ffffff" stroke="none" x="624" y="720" width="126.03173828125" height="85"/></g><g transform="translate(-382,-142) scale(1,1)"><path fill="none" stroke="#000000" d="M 624 720 L 750.03173828125 720 L 750.03173828125 805 L 624 805 L 624 720 Z Z" stroke-miterlimit="10"/></g><g transform="translate(-382,-142) scale(1,1)"><path fill="none" stroke="#000000" d="M 624 745 L 750.03173828125 745" stroke-miterlimit="10"/></g><g transform="translate(-382,-142) scale(1,1)"><path fill="none" stroke="#000000" d="M 624 783 L 750.03173828125 783" stroke-miterlimit="10"/></g><g transform="translate(-382,-142) scale(1,1)"><g><path fill="none" stroke="none"/><text fill="#000000" stroke="none" font-family="Arial" font-size="13px" font-style="normal" font-weight="bold" text-decoration="none" x="642.575927734375" y="739.5">MoovableEntity</text></g></g><g transform="translate(-382,-142) scale(1,1)"><g><path fill="none" stroke="none"/><text fill="#000000" stroke="none" font-family="Arial" font-size="13px" font-style="normal" font-weight="normal" text-decoration="none" x="629" y="762.5">+Vector2 Velocity</text></g></g><g transform="translate(-382,-142) scale(1,1)"><g><path fill="none" stroke="none"/><text fill="#000000" stroke="none" font-family="Arial" font-size="13px" font-style="normal" font-weight="normal" text-decoration="none" x="629" y="777.5">-speed</text></g></g><g transform="translate(-382,-142) scale(1,1)"><g><path fill="none" stroke="none"/><text fill="#000000" stroke="none" font-family="Arial" font-size="13px" font-style="normal" font-weight="normal" text-decoration="none" x="629" y="800.5">+Move()</text></g></g><g transform="translate(-382,-142) scale(1,1)"><rect fill="#C0C0C0" stroke="none" x="399" y="159" width="107.32080078125" height="160" opacity="0.2"/></g><g transform="translate(-382,-142) scale(1,1)"><rect fill="#ffffff" stroke="none" x="392" y="152" width="107.32080078125" height="160"/></g><g transform="translate(-382,-142) scale(1,1)"><path fill="none" stroke="#000000" d="M 392 152 L 499.32080078125 152 L 499.32080078125 312 L 392 312 L 392 152 Z Z" stroke-miterlimit="10"/></g><g transform="translate(-382,-142) scale(1,1)"><path fill="none" stroke="#000000" d="M 392 177 L 499.32080078125 177" stroke-miterlimit="10"/></g><g transform="translate(-382,-142) scale(1,1)"><path fill="none" stroke="#000000" d="M 392 290 L 499.32080078125 290" stroke-miterlimit="10"/></g><g transform="translate(-382,-142) scale(1,1)"><g><path fill="none" stroke="none"/><text fill="#000000" stroke="none" font-family="Arial" font-size="13px" font-style="normal" font-weight="bold" text-decoration="none" x="429.042236328125" y="171.5">IStats</text></g></g><g transform="translate(-382,-142) scale(1,1)"><g><path fill="none" stroke="none"/><text fill="#000000" stroke="none" font-family="Arial" font-size="13px" font-style="normal" font-weight="normal" text-decoration="none" x="397" y="194.5">-healthPoints</text></g></g><g transform="translate(-382,-142) scale(1,1)"><g><path fill="none" stroke="none"/><text fill="#000000" stroke="none" font-family="Arial" font-size="13px" font-style="normal" font-weight="normal" text-decoration="none" x="397" y="209.5">-damages</text></g></g><g transform="translate(-382,-142) scale(1,1)"><g><path fill="none" stroke="none"/><text fill="#000000" stroke="none" font-family="Arial" font-size="13px" font-style="normal" font-weight="normal" text-decoration="none" x="397" y="224.5">-criticalChance</text></g></g><g transform="translate(-382,-142) scale(1,1)"><g><path fill="none" stroke="none"/><text fill="#000000" stroke="none" font-family="Arial" font-size="13px" font-style="normal" font-weight="normal" text-decoration="none" x="397" y="239.5">-vitality</text></g></g><g transform="translate(-382,-142) scale(1,1)"><g><path fill="none" stroke="none"/><text fill="#000000" stroke="none" font-family="Arial" font-size="13px" font-style="normal" font-weight="normal" text-decoration="none" x="397" y="254.5">-dexterity</text></g></g><g transform="translate(-382,-142) scale(1,1)"><g><path fill="none" stroke="none"/><text fill="#000000" stroke="none" font-family="Arial" font-size="13px" font-style="normal" font-weight="normal" text-decoration="none" x="397" y="269.5">-level</text></g></g><g transform="translate(-382,-142) scale(1,1)"><g><path fill="none" stroke="none"/><text fill="#000000" stroke="none" font-family="Arial" font-size="13px" font-style="normal" font-weight="normal" text-decoration="none" x="397" y="284.5">-armor</text></g></g><g transform="translate(-382,-142) scale(1,1)"><path fill="none" stroke="#000000" d="M 667 719 L 482 313" stroke-miterlimit="10" stroke-dasharray="3"/></g><g transform="translate(-382,-142) scale(1,1)"><path fill="#FFFFFF" stroke="none" d="M 498.0890206814782 328.0047796888514 L 482 313 L 482.76667415832685 334.98663709472083"/></g><g transform="translate(-382,-142) scale(1,1)"><path fill="none" stroke="#000000" d="M 498.0890206814782 328.0047796888514 L 482 313 L 482.76667415832685 334.98663709472083 L 498.0890206814782 328.0047796888514" stroke-miterlimit="10"/></g><g transform="translate(-382,-142) scale(1,1)"><path fill="none" stroke="#000000" d="M 863 685 L 751 734" stroke-miterlimit="10"/></g><g transform="translate(-382,-142) scale(1,1)"><path fill="#FFFFFF" stroke="none" d="M 766.2467102285736 718.1400558889412 L 751 734 L 772.99572622358 733.5663781632414"/></g><g transform="translate(-382,-142) scale(1,1)"><path fill="none" stroke="#000000" d="M 766.2467102285736 718.1400558889412 L 751 734 L 772.99572622358 733.5663781632414 L 766.2467102285736 718.1400558889412" stroke-miterlimit="10"/></g><g transform="translate(-382,-142) scale(1,1)"><path fill="none" stroke="#000000" d="M 682 806 L 673 887" stroke-miterlimit="10"/></g><g transform="translate(-382,-142) scale(1,1)"><path fill="#FFFFFF" stroke="none" d="M 666.8770169300117 865.8692385767896 L 673 887 L 683.612101844108 867.7286924561337"/></g><g transform="translate(-382,-142) scale(1,1)"><path fill="none" stroke="#000000" d="M 666.8770169300117 865.8692385767896 L 673 887 L 683.612101844108 867.7286924561337 L 666.8770169300117 865.8692385767896" stroke-miterlimit="10"/></g><g transform="translate(-382,-142) scale(1,1)"><path fill="none" stroke="#000000" d="M 999 457 L 971 591" stroke-miterlimit="10"/></g><g transform="translate(-382,-142) scale(1,1)"><path fill="#FFFFFF" stroke="none" d="M 968.9581264413099 580.1911724793888 L 971 591 L 977.1991725968246 581.9131821238248 L 975.4998280531598 569.4651086027351"/></g><g transform="translate(-382,-142) scale(1,1)"><path fill="none" stroke="#000000" d="M 968.9581264413099 580.1911724793888 L 971 591 L 977.1991725968246 581.9131821238248 L 975.4998280531598 569.4651086027351 L 968.9581264413099 580.1911724793888" stroke-miterlimit="10"/></g></g></svg>